<svg xmlns="http://www.w3.org/2000/svg" xmlns:xlink="http://www.w3.org/1999/xlink"><symbol id="icon__info"><g fill="none"><rect x=".5" y=".5" width="9" height="9" rx="4.5" fill="#fff"/><path d="M4.585 2.812V2h.792v.812h-.792Zm.038 4.596V4.435L4 4.327v-.489h1.377v3.57L6 7.515V8H4v-.485l.623-.107Z" fill="#C9C9C9"/><rect x=".5" y=".5" width="9" height="9" rx="4.5" stroke="#C9C9C9"/></g></symbol><symbol id="icon__social_fb" viewBox="0 0 20 20"><path d="M11.549 20v-9.122h3.06l.46-3.556h-3.52v-2.27c0-1.03.285-1.731 1.762-1.731l1.882-.001V.14A25.512 25.512 0 0 0 12.45 0C9.736 0 7.877 1.657 7.877 4.7v2.622h-3.07v3.556h3.07V20h3.672Z"/></symbol><symbol id="icon__social_in" viewBox="0 0 20 20"><path d="M19 11.945V18.6h-3.858v-6.209c0-1.56-.558-2.624-1.954-2.624-1.067 0-1.7.717-1.98 1.411-.102.248-.128.593-.128.94V18.6H7.22s.053-10.516 0-11.606h3.86V8.64l-.026.037h.026V8.64c.512-.79 1.428-1.918 3.477-1.918 2.54 0 4.443 1.659 4.443 5.223ZM3.184 1.4C1.864 1.4 1 2.266 1 3.405c0 1.114.839 2.006 2.133 2.006h.025c1.346 0 2.183-.892 2.183-2.006C5.316 2.266 4.504 1.4 3.184 1.4ZM1.229 18.6h3.858V6.994H1.229V18.6Z"/></symbol><symbol id="logo__iintoo" viewBox="0 0 1000 214"><path d="M16.48 0C11.587 0 7.627 1.43 4.573 4.275 1.52 7.135 0 10.902 0 15.592c0 4.676 1.52 8.51 4.573 11.464 3.054 2.952 7.014 4.435 11.907 4.435 4.88 0 8.84-1.47 11.893-4.435 3.054-2.953 4.574-6.774 4.574-11.464 0-4.676-1.52-8.457-4.574-11.317C25.32 1.43 21.36 0 16.48 0Zm50.573 0C62.16 0 58.2 1.43 55.147 4.275c-3.054 2.86-4.574 6.627-4.574 11.317 0 4.676 1.52 8.51 4.574 11.464 3.053 2.952 7.013 4.435 11.906 4.435 4.88 0 8.84-1.47 11.894-4.435C82 24.103 83.52 20.282 83.52 15.592c0-4.676-1.52-8.457-4.573-11.317C75.893 1.43 71.933 0 67.053 0Zm211.44 0c-4.4 0-9.866 2.645-9.866 7.268.053-.026.053 13.254 0 39.842 0 1.082-.534 1.63-1.627 1.63h-22c-2.8 0-4.2 1.403-4.2 4.209v12.479c0 2.806 1.4 4.209 4.2 4.209h22c1.08 0 1.627.534 1.627 1.603v101.649c0 15.766 3.973 26.548 11.946 32.373 7.974 5.825 19.707 8.738 35.2 8.738h11c2.8-.214 4.2-1.737 4.2-4.543v-14.91c0-2.806-1.4-4.209-4.2-4.209h-7.106c-9.907 0-17.174-1.51-21.814-4.516-4.626-4.209-6.933-10.889-6.933-20.041V71.253c0-1.082.533-1.617 1.6-1.617h35.213c2.8 0 4.2-1.402 4.2-4.208v-12.48c0-2.805-1.4-4.208-4.2-4.208h-35.2c-1.08 0-1.626-.534-1.626-1.63V7.282c0-4.343-6-7.269-12.414-7.269V0Zm400.48 41.365a4.926 4.926 0 0 0-3.506 1.256c-.894.842-1.334 1.95-1.334 3.327 0 1.376.44 2.498 1.334 3.367.893.868 2.066 1.31 3.506 1.31 1.427 0 2.6-.442 3.494-1.31.893-.869 1.333-1.991 1.333-3.367s-.44-2.485-1.333-3.327a4.928 4.928 0 0 0-3.494-1.256ZM414.4 43.155c-32.333 0-76.68 19.774-76.68 86.832 0 68.14 46.027 84.013 76.68 84.013 31.52 0 54.187-11.838 66.493-34.645C496.52 206.438 524.987 214 546.147 214c49.426 0 77.133-29.127 77.133-84.013 0-67.178-40.493-86.832-77.133-86.832-22.16 0-49.947 9.286-65.254 36.69C466.44 52.4 439.52 43.154 414.4 43.154Zm-238.56 1.203c-19.387 0-33.813 7.656-43.293 23.007-.214.642-.534.802-.96.481-.44-.32-.654-.802-.654-1.456V52.628c0-4.796-5.853-8.016-11.466-8.016-5.614 0-11.467 3.22-11.467 8.016v157.163c0 2.806 1.4 4.209 4.2 4.209h14.533c2.8 0 4.2-1.403 4.2-4.209V102.01c1.08-10.141 5.227-18.331 12.44-24.584 7.214-6.28 16.32-9.406 27.294-9.406 11.413 0 20.666 3.74 27.786 11.17 7.107 7.455 10.667 17.222 10.667 29.3v101.315c0 2.805 1.387 4.208 4.187 4.208h14.533c2.8 0 4.213-1.403 4.213-4.208V103.96c0-17.048-5.12-31.838-15.346-44.384-10.227-10.154-23.854-15.218-40.867-15.218Zm-158.92.601c-6.813 0-13.013 3.901-13.013 7.79.08.026-.04 153.088 0 152.994 0 6.547 7.64 8.257 12.573 8.257 4.613 0 12.56-1.082 12.56-8.257V52.749c0-3.635-5.293-7.79-12.12-7.79Zm50.573 0c-6.813 0-13.013 3.901-13.013 7.79.08.026-.04 153.088 0 152.994 0 6.547 7.64 8.257 12.573 8.257 4.614 0 12.56-1.082 12.56-8.257V52.749c0-3.635-5.293-7.79-12.12-7.79ZM871.8 47.11c-.773 0-1.16.401-1.16 1.176V58.36c0 .294-.16.44-.453.44h-5.12c-.774 0-1.16.402-1.16 1.177v2.966c0 .775.386 1.162 1.16 1.162h5.12c.293 0 .453.16.453.454v28.232c0 4.382 1.107 7.375 3.32 8.992 2.213 1.616 5.467 2.431 9.773 2.431h3.054c.773-.053 1.16-.481 1.16-1.256v-3.153c0-.775-.387-1.162-1.16-1.162h-1.974c-2.746 0-4.773-.588-6.053-1.764-1.293-1.162-1.933-3.18-1.933-6.066V64.56c0-.293.146-.454.453-.454h9.773c.774 0 1.174-.387 1.174-1.162v-2.966c0-.775-.4-1.176-1.174-1.176h-9.773c-.307 0-.453-.134-.453-.441V48.286c0-.775-.4-1.176-1.174-1.176H871.8Zm-74.667 10.983c-4.36 0-8.08 1.162-11.16 3.5a16.647 16.647 0 0 0-6.146 9.353 20.2 20.2 0 0 0-.667 4.275c-.093 1.523-.133 3.581-.133 6.146 0 5.278.56 9.42 1.693 12.426a16.39 16.39 0 0 0 6.2 8.257c2.867 1.977 6.4 2.966 10.587 2.966 3.946 0 7.36-.882 10.226-2.646a16.728 16.728 0 0 0 6.467-7.148c.347-.6.173-1.108-.533-1.523l-2.614-1.443a.968.968 0 0 0-.893-.093 1.079 1.079 0 0 0-.627.628A11.963 11.963 0 0 1 805 97.694c-1.947 1.176-4.267 1.79-6.96 1.844a13.05 13.05 0 0 1-8.027-2.378 11.027 11.027 0 0 1-4.173-6.44c-.36-1.376-.533-3.554-.533-6.547 0-.307.133-.454.44-.454h28.72c.773 0 1.16-.401 1.16-1.176 0-4.075-.174-7.081-.534-8.992-.84-4.917-2.733-8.724-5.706-11.423-2.96-2.686-7.04-4.035-12.24-4.035h-.014Zm-82.986.08c-5.387 0-9.4 1.804-12.027 5.398-.067.187-.147.227-.267.133-.133-.093-.186-.227-.186-.4v-3.34c0-.762-.387-1.163-1.16-1.163h-4.04c-.774 0-1.174.4-1.174 1.176v43.155c0 .788.4 1.176 1.174 1.176h4.04c.773 0 1.16-.401 1.16-1.176V73.204a10.106 10.106 0 0 1 3.466-6.84 11.162 11.162 0 0 1 7.574-2.606c3.173 0 5.733 1.029 7.72 3.1 1.973 2.07 2.96 4.77 2.96 8.136v28.138c0 .788.386 1.176 1.16 1.176h4.04c.773 0 1.173-.401 1.173-1.176V73.738c0-4.743-1.427-8.524-4.267-11.33-2.84-2.819-6.626-4.235-11.346-4.235Zm126.88.187c-4.907 0-8.867 1.136-11.894 3.407-3.026 2.285-4.533 5.344-4.533 9.179 0 2.632.747 4.81 2.24 6.52a15.594 15.594 0 0 0 5.467 4.008 64.191 64.191 0 0 0 8.266 2.873 91.147 91.147 0 0 1 6.187 2.057c1.387.535 2.547 1.296 3.507 2.258a5 5 0 0 1 1.44 3.688c0 2.151-.96 3.941-2.88 5.344-1.907 1.403-4.427 2.111-7.534 2.111a12.847 12.847 0 0 1-7.72-2.204c-2.026-1.47-3.053-3.194-3.053-5.171v-.802a.69.69 0 0 0-.307-.588 1.436 1.436 0 0 0-.853-.227h-3.867c-.773 0-1.16.401-1.16 1.176v.802c0 2.218.707 4.235 2.107 6.026a14.443 14.443 0 0 0 6.013 4.315c2.6 1.082 5.574 1.617 8.934 1.617 5.066 0 9.133-1.163 12.16-3.501a11.239 11.239 0 0 0 4.533-9.352c0-2.753-.787-5.01-2.347-6.748a15.26 15.26 0 0 0-5.56-3.954 73.168 73.168 0 0 0-8.426-2.793c-3.774-1.069-6.534-2.15-8.307-3.233a5.174 5.174 0 0 1-2.653-4.676c0-2.151.933-3.848 2.8-5.078 1.84-1.229 4.293-1.843 7.346-1.843 3.294 0 5.907.695 7.854 2.07 1.946 1.377 2.92 3.074 2.92 5.118v.534c0 .428.386.642 1.16.642h3.68c.773 0 1.16-.401 1.16-1.176 0-2.338-.68-4.45-2.054-6.333a13.654 13.654 0 0 0-5.88-4.45 22.222 22.222 0 0 0-8.746-1.616Zm-164.04.44c-.774 0-1.16.402-1.16 1.177v43.155c0 .788.4 1.176 1.16 1.176h4.04c.786 0 1.173-.401 1.173-1.176V59.977c0-.775-.4-1.176-1.173-1.176h-4.04Zm60.933 0a1.132 1.132 0 0 0-.76.268.798.798 0 0 0-.32.641c0 .174.04.321.093.441l14.534 43.156c.186.668.626 1.002 1.346 1.002h4.854c.706 0 1.16-.334 1.333-.989l14.453-43.075c.134-.414.107-.748-.04-.989-.146-.24-.44-.36-.853-.36l-4.573-.094c-.667 0-1.08.334-1.267.989l-11.2 34.978c-.067.24-.16.361-.28.361-.133 0-.213-.12-.267-.36l-11.213-34.98c-.187-.654-.6-.988-1.267-.988h-4.573Zm59.227 4.864c3.053 0 5.573.802 7.573 2.379a11.358 11.358 0 0 1 4 6.426c.24 1.203.413 3.126.533 5.759 0 .293-.133.454-.44.454h-23.066c-.294 0-.454-.16-.454-.454.134-2.873.36-4.917.72-6.12a10.72 10.72 0 0 1 3.774-6.146 11.423 11.423 0 0 1 7.36-2.298Zm-382.747.428c41.693 0 55.067 27.71 55.067 65.895 0 43.463-25.147 62.93-55.067 62.93-30.32 0-53.36-20.255-53.36-62.93 0-49.034 27.413-65.895 53.36-65.895Zm131.747 0c41.693 0 55.066 27.71 55.066 65.895 0 43.463-25.146 62.93-55.066 62.93-30.32 0-53.36-20.255-53.36-62.93 0-49.034 27.413-65.895 53.36-65.895Zm334.8 41.111c-.774 0-1.16.401-1.16 1.162v60.605c0 .788.4 1.176 1.16 1.176h4.04c.786 0 1.173-.401 1.173-1.176v-29.928a10.108 10.108 0 0 1 3.453-6.841 11.156 11.156 0 0 1 7.587-2.605c3.16 0 5.733 1.028 7.707 3.099 1.973 2.071 2.96 4.784 2.96 8.137v28.138c0 .788.4 1.176 1.173 1.176h4.04c.773 0 1.16-.401 1.16-1.176v-29.394c0-4.743-1.413-8.511-4.267-11.33-2.826-2.819-6.613-4.222-11.333-4.222-5.387 0-9.4 1.791-12.04 5.385-.053.187-.133.227-.267.133-.12-.08-.173-.214-.173-.401v-20.776c0-.775-.4-1.162-1.173-1.162h-4.04Zm-205.48 5.745c-.774 0-1.16.401-1.16 1.176v10.074c0 .294-.16.454-.454.454h-5.12c-.773 0-1.16.388-1.16 1.163v2.966c0 .775.387 1.175 1.16 1.175h5.12c.294 0 .454.134.454.441v28.232c0 4.382 1.106 7.375 3.32 9.005 2.213 1.603 5.466 2.418 9.773 2.418h3.053c.774-.053 1.16-.481 1.16-1.256v-3.153c0-.775-.386-1.162-1.16-1.162h-1.973c-2.747 0-4.773-.588-6.053-1.751-1.294-1.175-1.934-3.206-1.934-6.079v-26.254c0-.294.147-.441.454-.441h9.773c.773 0 1.173-.4 1.173-1.175v-2.966c0-.775-.4-1.163-1.173-1.163h-9.773c-.307 0-.454-.16-.454-.454v-10.074c0-.775-.4-1.163-1.173-1.163h-3.853v-.013Zm175.6 0c-.774 0-1.16.401-1.16 1.176v10.074c0 .294-.147.454-.454.454h-5.106c-.787 0-1.174.388-1.174 1.163v2.966c0 .775.4 1.175 1.174 1.175h5.106c.307 0 .454.134.454.441v28.232c0 4.382 1.106 7.375 3.32 9.005 2.213 1.603 5.466 2.418 9.773 2.418h3.067c.773-.053 1.16-.481 1.16-1.256v-3.153c0-.775-.4-1.162-1.174-1.162h-1.973c-2.747 0-4.76-.588-6.053-1.751-1.28-1.175-1.934-3.206-1.934-6.079v-26.254c0-.294.16-.441.454-.441h9.773c.787 0 1.173-.4 1.173-1.175v-2.966c0-.775-.4-1.163-1.173-1.163h-9.773c-.294 0-.454-.16-.454-.454v-10.074c0-.775-.386-1.163-1.16-1.163h-3.866v-.013ZM720.24 121.944c-4.427 0-8.173 1.109-11.253 3.327a17.129 17.129 0 0 0-6.427 9.085c-.773 2.753-1.16 6.413-1.16 10.956 0 4.623.413 8.311 1.253 11.063 1.2 3.901 3.334 6.947 6.414 9.179a18.601 18.601 0 0 0 11.173 3.327c4.253 0 7.92-1.109 11-3.341a17.127 17.127 0 0 0 6.4-9.165c.853-2.752 1.267-6.44 1.267-11.05 0-4.502-.414-8.19-1.254-11.062a16.671 16.671 0 0 0-6.333-8.992 18.456 18.456 0 0 0-11.067-3.34l-.013.013Zm47.027 0c-3.947 0-7.334 1.096-10.134 3.273a16.792 16.792 0 0 0-5.84 8.685c-.48 1.443-.8 3.06-.933 4.85-.16 1.804-.24 4.008-.24 6.654 0 4.863.36 8.51 1.08 10.969 1.013 3.848 3.04 6.814 6.053 8.912a17.726 17.726 0 0 0 10.374 3.139c5.013 0 8.906-1.763 11.666-5.304.12-.174.24-.24.347-.174.133.054.187.174.187.348v3.153c0 5.037-1.427 8.631-4.267 10.795-2.84 2.152-7.427 3.073-13.773 2.779-.774-.12-1.16.241-1.16 1.083l-.187 3.607c0 .775.4 1.189 1.173 1.243.667.066 1.6.093 2.867.093 6.707 0 12-1.55 15.88-4.676 3.893-3.113 5.84-8.03 5.84-14.737v-42.808c0-.775-.4-1.162-1.173-1.162h-4.04c-.774 0-1.16.387-1.16 1.162v3.06c0 .173-.067.293-.187.36-.107.054-.227 0-.347-.187-2.813-3.407-6.826-5.117-12.026-5.117Zm49.346 0c-4.36 0-8.093 1.162-11.173 3.501a16.65 16.65 0 0 0-6.133 9.352c-.374 1.323-.587 2.739-.68 4.276-.094 1.523-.134 3.58-.134 6.146 0 5.29.56 9.419 1.707 12.425a16.384 16.384 0 0 0 6.187 8.27c2.866 1.978 6.4 2.967 10.586 2.967 3.947 0 7.36-.882 10.227-2.659a16.729 16.729 0 0 0 6.467-7.148c.36-.601.173-1.109-.534-1.523l-2.613-1.443a.955.955 0 0 0-.893-.094 1.077 1.077 0 0 0-.627.628 11.955 11.955 0 0 1-4.533 4.904c-1.947 1.175-4.267 1.79-6.96 1.843-3.227 0-5.907-.801-8.027-2.378a11.02 11.02 0 0 1-4.173-6.426c-.36-1.377-.534-3.568-.534-6.574 0-.294.147-.441.44-.441h28.72c.774 0 1.16-.401 1.16-1.176 0-4.075-.173-7.081-.533-8.991-.84-4.917-2.733-8.712-5.693-11.411-2.96-2.699-7.054-4.048-12.254-4.048Zm128.32 0c-4.373 0-8.093 1.162-11.173 3.501a16.65 16.65 0 0 0-6.147 9.352 20.204 20.204 0 0 0-.666 4.276c-.094 1.523-.134 3.58-.134 6.146 0 5.29.56 9.419 1.694 12.425a16.386 16.386 0 0 0 6.2 8.27c2.866 1.978 6.4 2.967 10.586 2.967 3.947 0 7.36-.882 10.227-2.659a16.729 16.729 0 0 0 6.467-7.148c.346-.601.173-1.109-.534-1.523l-2.613-1.443a.955.955 0 0 0-.893-.094 1.077 1.077 0 0 0-.627.628 11.955 11.955 0 0 1-4.533 4.904 13.857 13.857 0 0 1-6.96 1.843 13.047 13.047 0 0 1-8.027-2.378 11.02 11.02 0 0 1-4.173-6.426c-.36-1.377-.534-3.568-.534-6.574 0-.294.134-.441.44-.441h28.72c.774 0 1.16-.401 1.16-1.176 0-4.075-.173-7.081-.533-8.991-.84-4.917-2.733-8.712-5.707-11.411-2.96-2.699-7.04-4.048-12.24-4.048Zm49.44.267c-2.506 0-4.733.602-6.68 1.804-1.946 1.202-3.546 2.873-4.8 5.024-.133.187-.226.267-.32.227-.093-.027-.133-.161-.133-.401v-5.037c0-.775-.4-1.162-1.16-1.162h-4.04c-.787 0-1.173.387-1.173 1.162v43.155c0 .789.4 1.176 1.173 1.176h4.04c.773 0 1.16-.401 1.16-1.176v-26.254c0-3.34 1.013-6.119 3.053-8.31a10.672 10.672 0 0 1 7.72-3.474c1.787-.053 3.254.094 4.4.454.774.241 1.254 0 1.427-.721l.893-3.955c.187-.708-.026-1.202-.626-1.429a10.206 10.206 0 0 0-4.934-1.083Zm-274.306 5.305c2.986 0 5.52.801 7.573 2.378a11.18 11.18 0 0 1 4.093 6.426c.48 1.737.72 4.77.72 9.086 0 4.141-.24 7.161-.72 9.085a11.722 11.722 0 0 1-4.133 6.427 11.584 11.584 0 0 1-7.36 2.378c-2.987 0-5.52-.789-7.573-2.378a11.184 11.184 0 0 1-4.094-6.427c-.48-1.737-.72-4.77-.72-9.085 0-4.316.24-7.349.72-9.086a11.708 11.708 0 0 1 4.134-6.413 11.577 11.577 0 0 1 7.36-2.391Zm48.533 0a10.441 10.441 0 0 1 6.986 2.344 10.483 10.483 0 0 1 3.707 6.38c.227.895.387 1.871.44 2.926.067 1.042.094 3.1.094 6.146 0 2.525-.027 4.449-.094 5.759-.053 1.322-.173 2.431-.36 3.34a10.514 10.514 0 0 1-3.546 6.199 10.696 10.696 0 0 1-7.214 2.419 11.151 11.151 0 0 1-7.174-2.336 11.188 11.188 0 0 1-4.052-6.376c-.587-1.683-.894-4.716-.894-9.085 0-4.075.307-7.081.894-8.992a12.775 12.775 0 0 1 4.093-6.293 10.785 10.785 0 0 1 7.133-2.431h-.013Zm48.013 0c3.054 0 5.574.801 7.587 2.378a11.358 11.358 0 0 1 4 6.426c.227 1.203.4 3.127.533 5.759 0 .307-.146.454-.453.454h-23.067c-.293 0-.44-.147-.44-.454.12-2.873.36-4.917.72-6.106a10.723 10.723 0 0 1 3.76-6.159 11.416 11.416 0 0 1 7.36-2.298Zm128.32 0c3.054 0 5.574.801 7.587 2.378a11.358 11.358 0 0 1 4 6.426c.227 1.203.4 3.127.533 5.759 0 .307-.16.454-.453.454h-23.067c-.293 0-.44-.147-.44-.454.12-2.873.347-4.917.707-6.106a10.72 10.72 0 0 1 3.773-6.159 11.416 11.416 0 0 1 7.36-2.298Z"/></symbol></svg>